<?xml version="1.0" encoding="UTF-8" standalone="no"?>
<!-- Created with Inkscape (http://www.inkscape.org/) -->

<svg
   xmlns:dc="http://purl.org/dc/elements/1.1/"
   xmlns:cc="http://creativecommons.org/ns#"
   xmlns:rdf="http://www.w3.org/1999/02/22-rdf-syntax-ns#"
   xmlns:svg="http://www.w3.org/2000/svg"
   xmlns="http://www.w3.org/2000/svg"
   xmlns:sodipodi="http://sodipodi.sourceforge.net/DTD/sodipodi-0.dtd"
   xmlns:inkscape="http://www.inkscape.org/namespaces/inkscape"
   width="254.39999"
   height="41"
   viewBox="0 0 67.309997 10.847917"
   version="1.1"
   id="svg8"
   inkscape:version="0.92.3 (2405546, 2018-03-11)"
   sodipodi:docname="stan.svg">
  <defs
     id="defs2" />
  <sodipodi:namedview
     id="base"
     pagecolor="#00ffff"
     bordercolor="#666666"
     borderopacity="1.0"
     inkscape:pageopacity="0"
     inkscape:pageshadow="2"
     inkscape:zoom="0.35"
     inkscape:cx="198.62857"
     inkscape:cy="-168.07143"
     inkscape:document-units="px"
     inkscape:current-layer="layer1"
     showgrid="false"
     fit-margin-left="0.5"
     fit-margin-top="0.5"
     fit-margin-right="0.5"
     fit-margin-bottom="0.5"
     units="px"
     inkscape:window-width="1920"
     inkscape:window-height="1017"
     inkscape:window-x="-8"
     inkscape:window-y="-8"
     inkscape:window-maximized="1" />
  <metadata
     id="metadata5">
    <rdf:RDF>
      <cc:Work
         rdf:about="">
        <dc:format>image/svg+xml</dc:format>
        <dc:type
           rdf:resource="http://purl.org/dc/dcmitype/StillImage" />
        <dc:title></dc:title>
      </cc:Work>
    </rdf:RDF>
  </metadata>
  <g
     inkscape:label="Layer 1"
     inkscape:groupmode="layer"
     id="layer1"
     transform="translate(-53.279524,-93.51651)">
    <g
       id="g16"
       transform="matrix(0.26458333,0,0,0.26458333,53.406524,93.638218)"
       style="fill:none">
      <path
         id="path12"
         d="m 0.02,40.04 h 230.3 l 23.1,-40 H 0.02"
         inkscape:connector-curvature="0"
         style="fill:#ffdb0a" />
      <path
         id="path14"
         class="a"
         d="m 43.82,14.44 c -0.9,-0.7 -2,-1 -3.2,-1 -1.3,0 -2.5,0.8 -2.5,1.9 0,0.6 0.4,1.1 1.4,1.4 l 1.7,0.6 c 1.9,0.6 2.9,1.6 2.9,3.3 0,3.1 -2.7,5.8 -7.1,5.8 -2.1,0 -3.6,-0.6 -4.8,-1.3 l 1.6,-2.3 c 1.2,0.7 2.3,1.2 3.8,1.2 1.8,0 3.1,-1 3.1,-2.5 0,-0.7 -0.5,-1.2 -1.6,-1.5 l -1.5,-0.6 c -1.7,-0.5 -2.7,-1.4 -2.7,-3.1 0,-3 2.8,-5.4 6.2,-5.4 1.8,0 3.6,0.6 4.7,1.5 z m 8,2.8 h -1.9 l -1.2,5.4 c 0,0.4 -0.1,0.7 -0.1,1 0,0.6 0.3,0.8 1,0.8 0.2,0 0.7,-0.1 1,-0.2 v 1.7 c -0.8,0.3 -1.7,0.5 -2.4,0.5 -1.7,0 -2.6,-0.9 -2.6,-1.9 0,-0.4 0.1,-0.9 0.2,-1.4 l 1.2,-5.8 h -1.1 l 0.4,-2 h 1.1 c 0.2,-1 0.4,-1.7 0.7,-2.5 l 3,-0.7 c -0.4,1 -0.6,2.2 -0.9,3.3 h 2.5 z m 10.2,1.2 -0.9,4.2 c -0.2,0.9 -0.2,1.6 0.4,2.1 l -2.4,1.7 c -0.4,-0.3 -0.7,-0.9 -0.8,-1.3 -0.8,0.9 -1.7,1.3 -2.9,1.3 -2,0 -2.9,-1.2 -2.9,-3.4 0,-2.6 0.9,-4.9 2.2,-6.2 1.2,-1.2 2.6,-1.7 4.4,-1.7 1.2,0 2.7,0.2 3.6,0.7 -0.3,0.6 -0.6,1.8 -0.7,2.6 z m -3.3,-1.1 c -0.7,0 -1.3,0 -2,0.9 -0.9,1.1 -1.3,3.2 -1.3,4.7 0,0.9 0.2,1.3 0.9,1.3 0.8,0 1.7,-0.9 2,-1.7 l 1.1,-5.1 c -0.1,-0.1 -0.5,-0.1 -0.7,-0.1 z m 8.9,-2.4 c 0.2,0.3 0.3,1.3 0.2,1.7 0.9,-1 2.1,-1.7 3.7,-1.7 1.4,0 2.2,0.8 2.2,2.2 0,0.4 -0.1,1 -0.1,1.5 l -1.6,7.4 h -2.9 l 1.6,-7.1 c 0,-0.4 0.1,-0.7 0.1,-0.9 0,-0.6 -0.2,-0.7 -0.8,-0.7 -0.6,0 -1.4,0.4 -2.3,1.6 l -1.5,7.1 h -2.8 l 1.5,-7.3 c 0.2,-1.2 0.2,-2.1 0,-2.8 z m 12.4,-1.2 -1.7,8 c -0.3,1.2 -0.4,1.8 -0.4,2 0,0.5 0.1,0.7 0.6,0.7 0.1,0 0.2,0 0.3,-0.1 l 0.1,1.7 c -0.4,0.2 -1.1,0.3 -1.8,0.3 -1.5,0 -2.2,-0.8 -2.2,-1.9 0,-0.4 0.1,-1.2 0.3,-2 l 1.7,-8.1 c 0.3,-1.4 0.5,-2.4 0.3,-3.1 l 3.1,-0.9 c 0,0.5 0,2 -0.3,3.4 z m 9.1,11.2 c -1.5,1.1 -2.9,1.5 -4.4,1.5 -2.6,0 -4.2,-1.4 -4.2,-4 0,-2.3 1,-4.6 2.4,-6 1.1,-1 2.3,-1.4 3.8,-1.4 2.1,0 3.6,0.8 3.6,3 0,2 -1.8,3.7 -5.5,3.7 -0.8,0 -1.3,-0.2 -1.3,-0.2 0,0 -0.1,0.7 -0.1,1 0,1.2 0.6,1.7 1.7,1.7 1,0 2,-0.4 3.1,-1.1 z m -4.2,-5.2 c 1.3,0 2.7,-0.4 2.7,-1.5 0,-0.7 -0.3,-1.1 -1.2,-1.1 -1.1,0 -1.9,0.6 -2.4,2.5 0.1,0 0.5,0.1 0.9,0.1 z m 9.8,-4.6 0.6,6.3 c 0.1,0.6 0.1,2.3 0.1,2.3 0,0 0.7,-1.9 1.4,-3.3 l 2.8,-5.1 h 3 l -6.3,11 c -1.2,2.1 -1.9,3 -2.8,3.6 -0.8,0.5 -1.8,0.9 -2.8,1 l -0.6,-2 c 0.7,-0.1 1.5,-0.4 1.9,-0.7 0.9,-0.5 1.2,-1 1.9,-2.1 h -0.8 c 0,-0.8 -0.1,-2.1 -0.2,-3 l -1,-7.7 z m 15.8,-3.8 c 2.2,0 3.8,1.1 3.8,3.2 0,1.5 -0.9,3.1 -3.1,3.7 1.4,0.3 2.2,1.5 2.2,2.9 0,0.9 -0.4,2.3 -1.4,3.3 -1.1,1.1 -2.2,1.6 -4.6,1.6 h -5.3 l 3.1,-14.7 z m -4.9,12.4 h 1.9 c 0.6,0 1.2,-0.2 1.5,-0.4 0.7,-0.4 1.1,-1.4 1.1,-2.2 0,-1.1 -0.5,-1.4 -1.8,-1.4 h -1.9 z m 1.3,-6.4 h 1.7 c 0.8,0 1.2,-0.2 1.5,-0.4 0.5,-0.4 0.9,-0.9 0.9,-1.7 0,-0.9 -0.4,-1.3 -1.6,-1.3 h -1.9 z m 13.2,-3.6 -1.7,8 c -0.3,1.2 -0.4,1.8 -0.4,2 0,0.5 0.2,0.7 0.6,0.7 0.1,0 0.2,0 0.3,-0.1 l 0.2,1.7 c -0.5,0.2 -1.2,0.3 -1.8,0.3 -1.5,0 -2.3,-0.8 -2.3,-1.9 0,-0.4 0.1,-1.2 0.4,-2 l 1.7,-8.1 c 0.3,-1.4 0.5,-2.4 0.3,-3.1 l 2.9,-0.9 c 0.1,0.5 0.1,2 -0.2,3.4 z m 10.5,4.7 -0.9,4.2 c -0.2,0.9 -0.1,1.6 0.4,2.1 l -2.3,1.7 c -0.5,-0.3 -0.8,-0.9 -0.9,-1.3 -0.8,0.9 -1.7,1.3 -2.9,1.3 -2,0 -2.9,-1.2 -2.9,-3.4 0,-2.6 0.9,-4.9 2.3,-6.2 1.1,-1.2 2.4,-1.7 4.3,-1.7 1.2,0 2.7,0.2 3.6,0.7 -0.3,0.6 -0.6,1.8 -0.7,2.6 z m -3.3,-1.1 c -0.7,0 -1.3,0 -2,0.9 -0.9,1.1 -1.3,3.2 -1.3,4.7 0,0.9 0.3,1.3 0.9,1.3 0.9,0 1.8,-0.9 2,-1.7 l 1.1,-5.1 c -0.1,-0.1 -0.4,-0.1 -0.7,-0.1 z m 12.3,0.7 c -0.5,-0.5 -1.1,-0.8 -1.6,-0.8 -0.4,0 -0.9,0.2 -1.3,0.6 -0.7,0.9 -1.5,3.1 -1.5,4.8 0,1.1 0.6,1.6 1.3,1.6 0.8,0 1.6,-0.4 2.4,-1.1 l 0.9,1.8 c -1.1,0.9 -2.4,1.5 -4,1.5 -2.4,0 -3.7,-1.4 -3.7,-3.8 0,-2.6 1.3,-5.1 2.8,-6.4 0.9,-0.8 2,-1.3 3.6,-1.3 0.9,0 2,0.4 2.9,1.3 z m 7.3,-7.7 c 0.2,0.6 0.2,1.8 -0.3,4.1 l -2.5,11.7 h -2.8 l 2.5,-11.9 c 0.4,-1.6 0.4,-2.4 0.2,-3 z m 5.7,5 -4.4,4.7 2.9,6.1 h -3.4 l -2.3,-6.1 3.6,-4.7 z m 12.3,3.6 c -0.3,1.5 -0.9,3.1 -1.6,4.2 l 2.4,3 h -3.7 l -0.7,-1 c -1,0.7 -2.3,1.3 -4.4,1.3 -2.9,0 -4.5,-1.5 -4.5,-3.4 0,-1.8 1.2,-3.4 3.6,-4.4 -0.9,-0.8 -1.1,-1.5 -1.1,-2.4 0,-2.3 2.2,-4.2 5,-4.2 2.2,0 3.6,1.1 3.6,2.6 0,1.6 -0.6,2.8 -3.2,4 l -0.3,0.2 1.9,2.3 c 0.4,-0.6 0.7,-1.8 0.7,-2.2 z m -9.5,3.9 c 0,0.9 0.7,1.5 2,1.5 1.1,0 1.9,-0.3 2.4,-0.8 l -2.7,-3.3 c -1.1,0.6 -1.7,1.5 -1.7,2.6 z m 5.1,-7.8 c 0,-0.6 -0.5,-1 -1.1,-1 -0.9,0 -1.7,0.7 -1.7,1.7 0,0.4 0.2,0.9 0.8,1.7 1.3,-0.5 2,-1.4 2,-2.4 z m 13.1,-3.7 c 2.5,0 4,0.3 4.9,1.5 0.7,0.9 1.1,1.8 1.1,3.6 0,2.4 -0.9,5.6 -2.7,7.5 -1.5,1.6 -3,2.2 -6.2,2.2 h -3.6 l 3.1,-14.7 z m -2.9,12.4 h 1.4 c 1.3,0 2.2,-0.7 2.8,-1.5 1.3,-2.1 1.6,-5.1 1.6,-5.8 0,-1.4 -0.5,-2.7 -2.4,-2.7 h -1.4 z m 18.2,1.2 c -1.5,1.1 -2.9,1.5 -4.4,1.5 -2.6,0 -4.2,-1.4 -4.2,-4 0,-2.3 1,-4.6 2.4,-6 1.1,-1 2.3,-1.4 3.8,-1.4 2.1,0 3.6,0.8 3.6,3 0,2 -1.8,3.7 -5.5,3.7 -0.8,0 -1.3,-0.2 -1.3,-0.2 0,0 -0.2,0.7 -0.2,1 0,1.2 0.7,1.7 1.8,1.7 1,0 2,-0.4 3.1,-1.1 z m -4.2,-5.2 c 1.3,0 2.7,-0.4 2.7,-1.5 0,-0.7 -0.3,-1.1 -1.2,-1.1 -1.1,0 -1.9,0.6 -2.4,2.5 0.1,0 0.6,0.1 0.9,0.1 z m 14,-1.7 c -0.4,-0.5 -1.1,-0.8 -1.6,-0.8 -0.4,0 -0.9,0.2 -1.3,0.6 -0.7,0.9 -1.5,3.1 -1.5,4.8 0,1.1 0.6,1.6 1.3,1.6 0.8,0 1.6,-0.4 2.4,-1.1 l 0.9,1.8 c -1.1,0.9 -2.4,1.5 -4,1.5 -2.4,0 -3.7,-1.4 -3.7,-3.8 0,-2.6 1.3,-5.1 2.8,-6.4 0.9,-0.8 2,-1.3 3.6,-1.3 0.9,0 2,0.4 2.9,1.3 z m 7.3,-7.7 c 0.2,0.6 0.2,1.8 -0.3,4.1 l -2.5,11.7 h -2.9 l 2.6,-11.9 c 0.3,-1.6 0.3,-2.4 0.2,-3 z m 5.7,5 -4.4,4.7 2.9,6.1 h -3.4 l -2.3,-6.1 3.6,-4.7 z m 8.2,9.6 c -1.4,1.1 -2.9,1.5 -4.4,1.5 -2.6,0 -4.1,-1.4 -4.1,-4 0,-2.3 0.9,-4.6 2.4,-6 1.1,-1 2.2,-1.4 3.7,-1.4 2.1,0 3.6,0.8 3.6,3 0,2 -1.8,3.7 -5.5,3.7 -0.7,0 -1.3,-0.2 -1.3,-0.2 0,0 -0.1,0.7 -0.1,1 0,1.2 0.6,1.7 1.8,1.7 0.9,0 2,-0.4 3,-1.1 z m -4.1,-5.2 c 1.2,0 2.6,-0.4 2.6,-1.5 0,-0.7 -0.3,-1.1 -1.2,-1.1 -1.1,0 -1.8,0.6 -2.3,2.5 0,0 0.5,0.1 0.9,0.1 z m 10.2,-4.8 c 0.3,0.3 0.4,1.1 0.3,1.7 1,-1 2,-1.7 3.1,-1.7 0.4,0 0.6,0.1 0.9,0.2 l -1.2,2.5 c -0.3,-0.1 -0.5,-0.2 -0.8,-0.2 -0.6,0 -1.2,0.3 -2.1,1.5 l -1.5,7.1 h -2.9 l 1.6,-7.2 c 0.2,-1.4 0.2,-2.3 0,-3.1 z"
         inkscape:connector-curvature="0"
         style="fill:#231f20" />
    </g>
  </g>
  <style
     id="style10">
    .a{fill:#231F20;}
  </style>
</svg>
