<?xml version="1.0" encoding="UTF-8" standalone="no"?>
<svg xmlns:rdf="http://www.w3.org/1999/02/22-rdf-syntax-ns#" xmlns="http://www.w3.org/2000/svg" height="50.1" width="263.95" version="1.1" xmlns:cc="http://creativecommons.org/ns#" xmlns:dc="http://purl.org/dc/elements/1.1/" viewBox="0 0 263.95018 50.099611" >
 <g transform="matrix(.5 0 0 .5 .40987 .28131)">
  <path fill="#fa4616" d="m151.74 96.059h4v-91.9h-4v91.9z"/>
  <path fill="#0021a5" d="m492.84 0.95898c-0.8 0-1.4004 0.10078-1.9004 0.30078-0.4 0.2-1.3992 0.79883-2.6992 1.7988-1.4 1-2.7008 1.9996-3.8008 3.0996-0.7 0.7-1.2992 1.4-1.6992 2-0.2 0.4-0.40117 1.2008-0.70117 2.3008-0.1 0.5-0.19883 0.89961-0.29883 1.0996-0.5 0.3-1.1996 0.50078-2.0996 0.80078-0.89999 0.2-1.5004 0.39961-1.9004 0.59961l-0.20117 1h1.2012 2.5996l-2.8008 14.699c-0.7 4-1.3988 6.7004-1.7988 7.9004-0.2 0.6-0.50078 1.1008-0.80078 1.3008s-0.69961 0.29883-1.0996 0.29883c-0.4 0-0.69961-0.09844-1.0996-0.39844-0.3-0.3-0.60039-0.70078-0.90039-1.3008l-0.59961 0.09961c-0.1 0.7-0.3 1.4-0.5 2s-0.40078 1.4008-0.80078 2.3008c0.5 0.2 1 0.29883 1.5 0.29883 0.6 0 1.3004-0.2 1.9004-0.5 1.3-0.7 2.5008-1.6992 3.8008-3.1992 1.2-1.4 2.3-3.1 3-5s1.5992-4.8992 2.6992-9.1992l2.1992-9.5h2 3c0.1-0.6 0.40156-1.3 0.60156-2l-0.20117-0.30078c-0.4 0.1-1.1004 0.09922-1.9004 0.19922-1.4 0.1-2.2992 0.10156-2.6992 0.10156h-0.40039c0.3-1.7 0.70117-3.5012 1.2012-5.2012 0.2-0.7 0.4-1.2 0.5-1.5 0.2-0.3 0.39922-0.59922 0.69922-0.69922 0.3-0.2 0.6-0.30078 1-0.30078s0.90039 0.2 1.4004 0.5c0.5 0.3 1.0996 0.90078 1.5996 1.8008l0.59961-0.099609c0.2-1.6 0.59961-3.3 1.0996-5-0.6-0.2-1.0996-0.30078-1.5996-0.30078h-0.0996zm-140.3 2.8008c-1.2 0-2.2984 0.098437-3.3984 0.39844s-2.1 0.70078-3 1.3008c-0.89999 0.6-1.6016 1.4-2.1016 2.5s-0.79883 2.3-0.79883 3.5c0 0.9 0.1004 1.7996 0.40039 2.5996 0.30001 0.8 0.69883 1.4 1.2988 2 0.6 0.6 1.4004 1.0008 2.4004 1.3008 0.7 0.2 1.9996 0.50039 4.0996 0.90039 1.4 0.3 2.4 0.7 3 1s1.0008 0.69922 1.3008 1.1992c0.3 0.5 0.4004 1.1008 0.40039 1.8008 0 0.8-0.20156 1.5988-0.60156 2.2988s-0.99883 1.1996-1.7988 1.5996c-0.8 0.4-1.8004 0.60156-2.9004 0.60156-1.2 0-2.4004-0.20078-3.4004-0.80078-1-0.5-1.7992-1.2004-2.1992-1.9004-0.2-1.2-0.20117-2.1996-0.20117-3.0996h-1.3984c0 2.7-0.2 4.6004-0.5 5.9004 1.3 0.6 2.4996 1.1004 3.5996 1.4004s2.3988 0.39844 3.7988 0.39844c1.9 0 3.5004-0.29883 4.9004-0.79883 0.8-0.3 1.7-0.89961 2.5-1.5996 0.8-0.7 1.4004-1.4012 1.9004-2.2012 0.6-1.1 0.90039-2.3988 0.90039-3.7988 0-0.8-0.10078-1.6012-0.30078-2.2012-0.2-0.7-0.49882-1.1992-0.79883-1.6992-0.3-0.4-0.80078-0.80117-1.3008-1.2012-0.6-0.3-1.2992-0.59844-2.1992-0.89844-0.39999-0.1-1.1008-0.20039-2.3008-0.40039s-2.0992-0.4-2.6992-0.5c-0.89999-0.2-1.5-0.50117-2-0.70117-0.39999-0.3-0.8-0.59961-1-1.0996-0.19999-0.5-0.40039-1.0986-0.40039-1.7988 0-1 0.39883-2.0012 1.2988-2.7012 0.8-0.8 2.0016-1.1992 3.6016-1.1992 1.1 0 2.0984 0.19961 2.8984 0.59961 0.9 0.4 1.5008 0.80078 1.8008 1.3008 0.1 0.5 0.0992 1.4984 0.19922 2.7988h1.4004c0-1.2004 0.10118-2.0988 0.20117-2.7988 0.10001-0.7 0.19883-1.4012 0.29883-2.2012l-0.0996-0.40039c-0.8-0.4-1.8-0.69844-3-0.89844-1.1-0.2-2.3-0.30078-3.5-0.30078l-0.30078-0.19922zm67.801 0c-0.7 0.2-1.3004 0.3-1.9004 0.5l-3.5996 0.69922v1.3008c0.9 0 1.4-0.0003906 1.5 0.099609 0.2 0.1 0.59922 0.49961 1.1992 1.0996 0.8 0.9 1.8008 2.1994 2.8008 3.6992 1.2 1.9 2.3004 3.8008 3.4004 5.8008 0.4 0.8 0.69922 1.3996 0.69922 1.5996v3.2012c0 0.9 0.00039 1.9988-0.0996 3.2988 0 0.6-0.0992 0.9-0.19922 1-0.1 0.1-0.19999 0.20078-0.5 0.30078-0.19999 0.1-1.0008 0.09922-2.3008 0.19922v1.5c1.8-0.1 3.4992-0.09961 5.1992-0.09961 1.8 0 3.7004-0.00039 5.9004 0.09961v-1.5c-1.3 0-1.9988-0.09961-2.2988-0.09961-0.19999-0.1-0.39999-0.20078-0.5-0.30078-0.1-0.1-0.20078-0.49922-0.30078-1.1992-0.1-0.7-0.0996-1.6992-0.0996-3.1992v-2.9004c0-0.6-0.00039-1.0008 0.0996-1.3008 0.1-0.4 0.2-0.79883 0.5-1.2988 0.4-0.7 1.4-2.3008 3-4.8008s3.1-4.7 4.5-6.5v-0.80078h-2.6992c-0.19999 0.3-0.50117 1.0016-1.2012 2.1016-1.8 3.2-2.8992 5.0992-3.1992 5.6992l-2.2012 3.5c-0.3-0.6-1.0984-2.1992-2.3984-4.6992-0.8-1.6002-1.6-3.0012-2.5-4.2012-0.6-0.8-1.0008-1.3992-1.3008-1.6992s-0.8-0.6-1.5-1v-0.099609zm-219.4 0.29883v1.4004c1.2 0.1 1.9012 0.19922 2.2012 0.19922 0.30001 0.1 0.4 0.20078 0.5 0.30078s0.19883 0.29961 0.29883 0.59961 0.0996 0.79961 0.0996 1.5996l0.10156 5v5.5c0 1.5-0.002 2.7012-0.10156 3.7012-0.1 1.7-0.19922 2.6992-0.19922 3.1992-0.1 0.3-0.0992 0.49961-0.19922 0.59961-0.1 0.1-0.20078 0.20117-0.30078 0.20117-0.2 0.1-1.0008 0.09922-2.3008 0.19922v1.4004c1.9-0.1 3.4-0.09961 4.5-0.09961 0.3 0 1.5012-0.000391 3.7012 0.09961v-1.4004h-0.30078c-0.3 0-0.89961 0.00039-1.5996-0.09961-0.3 0-0.49961-0.09922-0.59961-0.19922s-0.20117-0.20078-0.20117-0.30078c-0.1-0.3-0.19922-1.1004-0.19922-2.4004-0.1-1.9-0.0996-3.8-0.0996-5.5v-8.5c6.7 8.2004 11.9 14.4 15.6 18.5 1 0.1 2.0004 0.3 2.9004 0.5l0.19922-0.19922c-0.2-1.6-0.19922-6.2008-0.19922-13.801 0-1-0.00039-2.5 0.0996-4.5 0-2.0004 0.20078-3.3004 0.30078-3.9004 0-0.1 0.0992-0.19922 0.19922-0.19922 0.3-0.2 1.1-0.30078 2.5-0.30078v-1.3984c-1.8 0.1-3.2008 0.099609-4.3008 0.099609-1.2 0-2.4988 0.0003906-3.7988-0.099609v1.3984c1.5 0 2.3992 0.10078 2.6992 0.30078 0.2 0.1 0.20078 0.40078 0.30078 0.80078 0.1 1.1 0.19922 4.699 0.19922 10.799v3.9004c-1.6-1.6-3.6-3.8992-6-6.6992-3.3-4-6.2-7.5014-8.5-10.602l-1.5996 0.10156-2.5 0.099609c-0.7 0-1.6992 0.0003906-3.1992-0.099609l-0.20117-0.20117zm34.4 0v1.5c1.2 0 1.9992 0.10117 2.1992 0.20117s0.30039 0.099219 0.40039 0.19922 0.10117 0.20078 0.20117 0.30078c0.1 0.4 0.0992 1.2992 0.19922 2.6992 0 0.6 0.0996 2.1004 0.0996 4.4004v7.0996c0 1.2-0.0992 2.4008-0.19922 3.8008-0.1 0.9-0.0996 1.4996-0.0996 1.5996s-0.10117 0.19883-0.20117 0.29883-0.3 0.10117-0.5 0.20117c-0.2 0-0.9 0.09961-2 0.09961v1.5c1.4-0.1 3.1004-0.09961 4.9004-0.09961 2.1 0 4.1004-0.000391 5.9004 0.09961v-1.5c-1.1 0-1.8-0.09961-2-0.09961s-0.4-0.10117-0.5-0.20117-0.20117-0.19844-0.20117-0.39844c-0.1-0.3-0.19922-1.1008-0.19922-2.3008v-3.0996-6.9004c0-0.2-0.00039-1.7 0.0996-4.5 0-0.8-0.00039-1.3992 0.0996-1.6992 0-0.5 0.10117-0.90156 0.20117-1.1016 0-0.1 0.0992-0.19922 0.19922-0.19922 0.1-0.1 0.3-0.19922 0.5-0.19922 0.2-0.1 0.89961-0.10156 2.0996-0.10156v-1.5c-1.9 0.1-3.7984 0.10156-5.8984 0.10156-1.9 0-3.5004-0.00156-4.9004-0.10156l-0.40039-0.099609zm17.801 0v1.5c1.1 0 1.7996 0.10078 2.0996 0.30078 0.2 0.1 0.6 0.6 1 1.5s1.6 3.5996 3.5 8.0996l2.4004 5.8008c0.9 2.1 1.7988 4.3988 2.7988 6.7988h2.5996c0.7-1.9 2-5.3004 4-9.9004l2.3008-5.5 1.1992-2.7988c1-2.3 1.6004-3.6004 1.9004-3.9004 0.2-0.1 0.80039-0.30039 1.9004-0.40039v-1.5l-3.6992 0.099609-4.3008-0.099609v1.5c0.5 0 1.1004 0.099609 1.9004 0.099609 0.3 0 0.49961 0.10156 0.59961 0.10156s0.19922 0.099219 0.19922 0.19922c0.1 0.1 0.10156 0.20039 0.10156 0.40039v0.40039c-0.1 0.5-0.40039 1.3988-0.90039 2.7988-0.7 1.9004-1.1012 3.0012-1.2012 3.2012l-3.7988 9.3984-4.3008-10.5c0-0.1-0.0996-0.19883-0.0996-0.29883s-0.29922-0.60137-0.69922-1.7012c-0.8-1.8-1.1016-2.8992-1.1016-3.1992 0-0.2 0.10117-0.30039 0.20117-0.40039s0.2-0.19922 0.5-0.19922c0.4-0.1 1.0996-0.20117 2.0996-0.20117v-1.5l-6.0996 0.10156c-0.6 0-2.3-0.00156-5-0.10156l-0.0996-0.099609zm47.299 0-3.5 0.099609c-1.9 0-3.5992 0.10156-5.1992 0.10156h-2.2012-4v1.2988c1.3 0.1 2.2 0.20078 2.5 0.30078 0.1 0.1 0.20078 0.098828 0.30078 0.29883 0.1 0.3 0.20079 1.1004 0.30078 2.4004v3.3008 7.6992c0 0.9-0.002 2.3008-0.10156 4.3008 0 1.1-0.0992 1.7988-0.19922 2.2988-0.4 0.3-0.99922 0.7-1.6992 1v0.90039c3.5-0.1 5.3992-0.09961 5.6992-0.09961 1 0 2.8996-0.00039 5.5996 0.09961l2.8008 0.09961c1.3 0 2.3996 0.000391 3.0996-0.09961l0.19922-0.19922c0-1.5 0.10078-3.2996 0.30078-5.5996h-1.4004c-0.2 1.5-0.49922 2.4996-0.69922 3.0996-0.1 0.2-0.10117 0.29883-0.20117 0.29883-0.2 0.1-0.89844 0.30078-1.8984 0.30078-1 0.1-2.2004 0.09961-3.4004 0.09961-1.3 0-2.3012 0.00039-3.2012-0.09961 0-0.6-0.0996-1.2-0.0996-2v-7.1992c0.7-0.1 1.6008-0.10156 2.8008-0.10156s2.2996 0.10117 3.0996 0.20117c0.4 0.1 0.59922 0.20039 0.69922 0.40039 0.2 0.3 0.30078 1.0984 0.30078 2.3984h1.4004l-0.0996-3.6992 0.0996-3.6992h-1.4004c0 1-0.0992 1.6992-0.19922 2.1992-0.1 0.2-0.10117 0.30039-0.20117 0.40039s-0.49961 0.09961-1.0996 0.09961c-1.6 0-2.6008 0.09961-2.8008 0.09961-0.8 0-1.5984 0.00039-2.3984-0.09961v-3.5c0-2 0.0988-3.6004 0.29883-4.9004 1.1-0.1 2.0996-0.099609 3.0996-0.099609 1.1 0 2.2008 0.099219 3.3008 0.19922 0.8 0.1 1.2004 0.20078 1.4004 0.30078 0.1 0.1 0.0992 0.20078 0.19922 0.30078 0.1 0.3 0.10118 1.1 0.20117 2.5h1.2988c0.1-1.5 0.10118-2.3 0.20117-2.5l0.29883-2.5-0.0996-0.20117c-0.3-0.1-0.39961-0.099609-0.59961-0.099609-1.2 0-2.1-0.099609-2.5-0.099609l-0.30078-0.30078zm24.301 0c-0.9 0-2.1-0.0003907-3.5 0.099609-0.9 0.1-1.8996 0.10156-3.0996 0.10156h-3.2012c-1.6-0.1-2.4992-0.10156-2.6992-0.10156v1.4004c1.4 0.1 2.2 0.20078 2.5 0.30078l0.29883 0.29883c0.1 0.3 0.20117 1.1016 0.20117 2.6016l0.0996 3.5996v6.2988l-0.19922 5c0 0.9-0.10117 1.6-0.20117 2 0 0.2-0.0992 0.4-0.19922 0.5-0.1 0.1-0.10078 0.20117-0.30078 0.20117-0.2 0.1-0.99882 0.09922-2.2988 0.19922v1.5c1.5-0.1 3.0984-0.09961 4.8984-0.09961 2 0 4.0004-0.00039 5.9004 0.09961v-1.5c-1.1 0-1.7 0.00039-2-0.09961-0.2 0-0.4-0.09922-0.5-0.19922l-0.19922-0.20117c-0.1-0.2-0.20117-0.59922-0.20117-1.1992 0-0.3-0.0996-1.7-0.0996-4 0-1.9-0.0996-3.7004-0.0996-5.4004 0-1.1-0.00039-3.2 0.0996-6.4004 0-1.4 0.0996-2.3988 0.0996-2.7988 0.5-0.1 1.1016-0.10156 1.6016-0.10156 1.2 0 2.1 0.10078 2.5 0.30078 0.7 0.3 1.3984 0.8 1.8984 1.5s0.80078 1.4992 0.80078 2.5996c0 1-0.19921 2.0008-0.69922 2.8008-0.5 0.8-1.1012 1.3988-1.7012 1.7988-0.7 0.3-1.6996 0.50039-3.0996 0.40039l-0.19922 0.59961c0.30001 0.3 0.7 0.60156 1 1.1016 0.7 1 1.5992 2.2996 2.6992 4.0996l3.6992 6c0.2 0.4 0.30039 0.7 0.40039 1 0.9 0 1.8012-0.09961 2.7012-0.09961 0.80001 0 1.9988-0.000391 3.7988 0.09961v-1.5c-0.5 0-0.89961 0.000391-1.0996-0.09961-0.2-0.1-0.39961-0.20039-0.59961-0.40039s-0.6996-0.9-1.5996-2c-0.1-0.1-0.40117-0.60117-1.2012-1.7012l-2.6992-3.8984c-0.1-0.1-0.10117-0.20078-0.20117-0.30078s-0.29961-0.4-0.59961-1c-0.4-0.5-0.7-1-1-1.5 1.8-0.7 3.1004-1.5992 3.9004-2.6992s1.3008-2.4008 1.3008-3.7012c0-1.2-0.30039-2.2-0.90039-3s-1.4008-1.2996-2.3008-1.5996-2.2-0.40039-4-0.40039l0.30078-0.5zm44.299 0v1.5c1.2 0 2.0012 0.10117 2.2012 0.20117s0.30039 0.099219 0.40039 0.19922c0.10001 0.1 0.0992 0.20078 0.19922 0.30078 0.1 0.4 0.19922 1.2992 0.19922 2.6992v4.4004 7.0996c0 1.2 0.00039 2.4008-0.0996 3.8008-0.1 0.9-0.0992 1.4996-0.19922 1.5996 0 0.1-0.10117 0.19883-0.20117 0.29883s-0.3 0.10117-0.5 0.20117c-0.2 0-0.9 0.09961-2 0.09961v1.5c1.4-0.1 3.1004-0.09961 4.9004-0.09961 2.1 0 4.1004-0.000391 5.9004 0.09961v-1.5c-1.1 0-1.8-0.09961-2-0.09961s-0.4-0.10117-0.5-0.20117-0.19922-0.19844-0.19922-0.39844c-0.1-0.3-0.20117-1.1008-0.20117-2.3008v-3.0996-6.9004c0-0.2-0.00039-1.7 0.0996-4.5 0-0.8 0.002-1.3992 0.10156-1.6992 0-0.5 0.0992-0.90156 0.19922-1.1016 0-0.1 0.0992-0.19922 0.19922-0.19922 0.1-0.1 0.20039-0.19922 0.40039-0.19922 0.2-0.1 0.89961-0.10156 2.0996-0.10156v-1.5c-1.9 0.1-3.7984 0.10156-5.8984 0.10156-1.9 0-3.5004-0.00156-4.9004-0.10156l-0.20117-0.099609zm17.9 0-0.19922 0.20117c0.1 0.6 0.0992 1.0996 0.19922 1.5996 0 0.3 0.0996 1.6 0.0996 4h1.4004c0-1 0.10078-1.9012 0.30078-2.7012 0.1-0.3 0.0992-0.49961 0.19922-0.59961 0.1-0.1 0.19961-0.099219 0.59961-0.19922 0.9-0.1 2.0008-0.099609 3.3008-0.099609h2.5v4.6992 10.199c0 2.5-0.0992 3.9004-0.19922 4.4004-0.1 0.3-0.3 0.60117-0.5 0.70117-0.3 0.1-1.1004 0.19883-2.4004 0.29883v1.4004c2.1-0.1 3.9996-0.09961 5.5996-0.09961 1.5 0 3.3996-0.000391 5.5996 0.09961v-1.4004c-1.4 0-2.2004-0.09883-2.4004-0.29883-0.3-0.1-0.4-0.40117-0.5-0.70117-0.1-0.5-0.19922-2.0004-0.19922-4.4004v-10.199c0-2.7-0.00039-4.2992 0.0996-4.6992h2.4004c1.3 0 2.4004-0.0003906 3.4004 0.099609 0.3 0 0.5 0.099609 0.5 0.099609 0.1 0.1 0.19922 0.29922 0.19922 0.69922 0.1 0.8 0.20118 1.7016 0.20117 2.6016h1.3984c0-2.4 0.002-3.7012 0.10156-3.7012 0-0.5 0.0992-1.1988 0.19922-1.7988l-0.2-0.2012c-0.5 0.1-1.1016 0.099609-1.6016 0.099609h-5.6992-6.9004-5.6992c-0.6 0-1.2012-0.099609-1.7012-0.099609h-0.0996zm-311.7 0.099609v15.301h5.8008v60.5h-5.8008v15.4h28.799v-15.4h-5.5996v-23.301h21.5v-15.398h-21.5v-21.801h23.6v8.4004h15.602v-23.701h-62.301-0.09961zm93.1 0v1.3008l2.3008 0.30078 0.39844 0.39844c0.1 0.2 0.20117 0.60156 0.20117 1.1016 0.1 1.3 0.0996 2.6984 0.0996 4.2988v4.3008 3.2988c0 1.8-0.00039 2.9008 0.0996 3.3008 0.1 0.7 0.30118 1.3996 0.70117 2.0996 0.40001 0.7 0.89961 1.4004 1.5996 1.9004 0.7 0.6 1.5992 1.0004 2.6992 1.4004 1.5 0.5 3.1008 0.69922 4.8008 0.69922 1.5 0 2.8004-0.1 3.9004-0.5 1.1-0.3 2.0984-0.80039 2.8984-1.4004 0.8-0.6 1.5004-1.2996 1.9004-2.0996 0.5-0.8 0.70039-1.6988 0.90039-2.7988 0.1-1.1 0.30079-2.2012 0.30078-3.2012v-4c0-1.2-0.00039-2.7986 0.0996-4.7988 0.1-2 0.19883-3.2 0.29883-3.5s0.20078-0.4 0.30078-0.5c0.3-0.2 0.9-0.20117 2-0.20117v-1.4004l-3.8008 0.10156h-0.5c-0.4 0-1.5992-0.00156-3.6992-0.10156v1.4004c1.3 0 2.1 0.20078 2.5 0.30078 0.2 0.1 0.30039 0.20039 0.40039 0.40039 0.1 0.3 0.19883 1.1996 0.29883 2.5996v5.5 3.5c0 2.4-0.19961 4.1004-0.59961 4.9004-0.4 0.9-1.1 1.5996-2 2.0996s-2.1988 0.79883-3.7988 0.79883c-1.4 0-2.5004-0.19961-3.4004-0.59961s-1.5-0.89961-2-1.5996c-0.4-0.7-0.70078-1.4996-0.80078-2.5996 0-0.5-0.0996-1.8008-0.0996-3.8008v-2-3.9004c0-2.3998 0.10078-3.8992 0.30078-4.6992 0.1-0.3 0.19883-0.49961 0.29883-0.59961 0.3-0.2 1.1008-0.30078 2.3008-0.30078v-1.4004h-0.70117l-2.2988 0.10156h-2.3008l-5.5996-0.10156zm-124.2 0.10156v15.299h5.5977v36.301c0 15.2-1.7992 22.5-12.699 22.5s-12.699-7.3-12.699-22.5v-36.301h5.5977v-15.199h-28.898v15.1h5.6992v41.4c0 9 0.0007813 16.499 4.3008 23.199 4.8 7.5 13.4 12.301 26 12.301 22.2 0 30.102-11.6 30.102-35.5v-41.4h5.7969v-15.199h-28.797zm422.9 6.7992c-1.4 0-2.5988 0.30078-3.7988 0.80078s-2.3008 1.2-3.3008 2-1.6996 1.4004-2.0996 1.9004c-0.6 0.8-1.1992 2.0988-1.6992 3.7988-0.5 1.8-0.80078 3.3996-0.80078 5.0996 0 1.2 0.2 2.2012 0.5 3.2012 0.4 1 1.0004 1.6988 1.9004 2.2988s2.0992 0.80078 3.6992 0.80078c1.3 0 2.4996-0.19961 3.5996-0.59961s2.2008-1.0012 3.3008-1.7012c1.1-0.8 2-1.4996 2.5-2.0996 0.7-0.9 1.4-2.2004 2-3.9004s0.90039-3.3992 0.90039-5.1992c0-0.9-0.10078-1.7-0.30078-2.5s-0.6-1.4004-1-1.9004c-0.5-0.5-1.1996-0.99883-2.0996-1.2988-0.9-0.3-1.9996-0.5-3.0996-0.5l-0.20117-0.20117zm-1.5488 1.8066c0.98 0.014 1.8592 0.40575 2.4492 1.0938 0.6 0.7 0.90039 1.9 0.90039 3.5 0 1.9-0.30078 3.9004-0.80078 5.9004-0.4 1.4-0.79922 2.4988-1.1992 3.2988-0.5 0.8-1 1.4008-1.5 1.8008s-1.2004 0.59961-1.9004 0.59961c-1.1 0-1.9996-0.39961-2.5996-1.0996-0.6-0.7-0.90039-1.9-0.90039-3.5 0-1.8 0.30039-3.8 0.90039-6s1.3-3.7004 2-4.4004c0.69-0.787 1.6704-1.1794 2.6504-1.1934zm-174.25 24.895c-5 0-9.5012 0.69922-13.701 2.1992-3.3 1.1-6.2996 2.9996-9.0996 5.5996s-5 5.7004-6.5 9.4004-2.1992 8-2.1992 13c0 6.4 1.2988 11.8 3.7988 16.1s5.9008 7.6008 10.301 9.8008c4.4 2.2 9.5992 3.2988 15.699 3.2988 5.6 0 10.702-0.89922 15.102-2.6992 3.2-1.4 6.0996-3.3008 8.5996-5.8008s4.3992-5.3992 5.6992-8.6992c1.8-4.4 2.5996-9.0992 2.5996-14.199 0-3-0.29844-5.8008-0.89844-8.3008s-1.5012-4.8004-2.7012-6.9004-2.8992-4.0996-5.1992-6.0996-4.9004-3.4996-7.9004-4.5996c-4-1.4-8.5004-2.0996-13.4-2.0996h-0.19922zm199.8 0.59961 0.10156 0.09961-3.6016 9.3008-10.6 26.199c-2 5-3.3996 8.3-4.0996 10-1.5 3.6-2.5008 5.6992-2.8008 6.1992-0.3 0.6-0.59844 1.0012-0.89844 1.2012-0.3 0.3-0.70156 0.49961-1.1016 0.59961-0.4 0.1-1.6984 0.20039-3.8984 0.40039v3.4004l9.2988-0.30078 9.4004 0.30078v-3.4004c-3.2-0.1-5.2008-0.30117-5.8008-0.70117-0.4-0.3-0.69922-0.69844-0.69922-1.3984 0-0.9 0.7-3.2 2-7l1.8008-4.9004h21l3.5 8.9004c0.60001 1.5 0.89844 2.6988 0.89844 3.2988 0 0.5-0.19961 0.90117-0.59961 1.2012-0.4 0.2-2.2996 0.4-5.5996 0.5v3.3984l14.301-0.29883 11.299 0.29883v-3.3984c-0.8-0.1-1.3988-0.10117-1.7988-0.20117-1.3-0.1-2.1004-0.19883-2.4004-0.29883s-0.60078-0.3-0.80078-0.5-0.49883-0.60156-0.79883-1.1016l-1.6016-3.6992-2.5-5.5996-18.199-42.5h-5.8008zm-288.6 0.09961 0.0996 0.19922-19.6 0.40039-14.5-0.29883v3.3984c2.6 0.2 4.3008 0.30039 4.8008 0.40039 0.6 0.1 0.89961 0.30039 1.0996 0.40039 0.2 0.1 0.30039 0.39922 0.40039 0.69922 0.2 0.9 0.40039 2.3004 0.40039 4.4004 0.30001 7.2 0.39844 11 0.39844 11.4v16.9c0 1.4 0.00078 3.7996-0.19922 7.0996-0.1 3.3-0.30078 5.3004-0.30078 5.9004-0.1 1.1-0.29961 1.7996-0.59961 2.0996-0.2 0.2-0.39961 0.40039-0.59961 0.40039-0.5 0.2-2.3 0.30039-5.5 0.40039v3.3984c5-0.2 8.7-0.29883 11-0.29883l16 0.29883v-3.1992c-3.8-0.3-5.9004-0.49922-6.4004-0.69922s-0.8-0.40117-1-0.70117c-0.3-0.4-0.49922-1.9-0.69922-4.5-0.1-2.6-0.20117-7.1-0.20117-13.5v-4.5c1.5 0 2.6008-0.09961 3.3008-0.09961 4.3 0 7.5 0.2 9.5 0.5 0.8 0.2 1.3 0.40078 1.5 0.80078 0.4 0.7 0.59922 2.6996 0.69922 6.0996h3.6016v-17.6h-3.6016c-0.1 2.4-0.2 3.8996-0.5 4.5996-0.2 0.5-0.39922 0.80039-0.69922 0.90039-0.9 0.3-3.0992 0.5-6.6992 0.5-1.2 0-3.5-0.10078-7-0.30078v-5.6992c0-7 0.0984-11.902 0.39844-14.602 0.8-0.1 2.2008-0.09922 4.3008-0.19922s3.4008-0.09961 3.8008-0.09961c2.4 0 4.3992 0.10039 6.1992 0.40039s2.9004 0.6 3.4004 1c0.2 0.1 0.29883 0.19844 0.29883 0.39844 0.1 0.2 0.20078 0.90156 0.30078 2.1016 0.1 2.3 0.19922 3.6984 0.19922 4.3984h3.3008c0-1.8 0.20039-3.8988 0.40039-6.2988s0.49883-4.4004 0.79883-5.9004l-0.29883-0.59961c-2.4-0.3-5.0008-0.40039-7.8008-0.40039zm148.9 0.19922c-2.2 0-5.0008 0.10078-8.3008 0.30078-2 0.1-4.4988 0.19922-7.2988 0.19922-3.3 0-5.9012 0.000391-7.7012-0.09961-3.7-0.1-5.9-0.19922-6.5-0.19922v3.2988c3.3 0.2 5.3 0.50078 6 0.80078 0.3 0.2 0.50156 0.39922 0.60156 0.69922 0.30001 0.7 0.4 2.7016 0.5 6.1016l0.19922 8.5996v15.1l-0.30078 11.9c-0.1 2.1-0.19844 3.7988-0.39844 4.7988-0.1 0.6-0.20078 0.90156-0.30078 1.1016-0.1 0.2-0.39921 0.29844-0.69922 0.39844-0.6 0.2-2.4 0.30039-5.5 0.40039v3.5996c3.6-0.2 7.4988-0.29883 11.799-0.29883 4.7 0 9.3996 0.09883 14.1 0.29883v-3.5996c-2.6-0.1-4.1992-0.09922-4.6992-0.19922s-0.89922-0.30039-1.1992-0.40039c-0.19999-0.2-0.39999-0.39961-0.5-0.59961-0.19999-0.5-0.39999-1.5-0.5-3-0.1-0.8-0.10117-3.9-0.20117-9.5-0.1-4.6-0.0996-8.8004-0.0996-12.9 0-2.6 0.10078-7.7004 0.30078-15.4 0.10001-3.4 0.19883-5.5996 0.29883-6.5996 1.3-0.2 2.6004-0.30078 3.9004-0.30078 2.9 0 4.9996 0.20156 6.0996 0.60156 1.8 0.7 3.2004 1.8 4.4004 3.5s1.8008 3.6992 1.8008 6.1992-0.50117 4.6992-1.7012 6.6992c-1.1 2-2.5992 3.4016-4.1992 4.1016-1.7 0.8-4.1004 1.1-7.4004 1l-0.40039 1.2988c0.8 0.6 1.6 1.5012 2.5 2.7012 1.7 2.4 3.9004 5.5992 6.4004 9.6992l8.6992 14.4c0.5 0.9 0.8 1.6988 1 2.2988 2.1-0.1 4.3-0.19922 6.5-0.19922 1.9 0 4.9016 0.09922 9.1016 0.19922v-3.5996c-1.3 0-2.1016-0.09883-2.6016-0.29883-0.4-0.2-0.89883-0.5-1.2988-1-0.5-0.5-1.7012-2.1008-3.7012-4.8008-0.1-0.2-0.99922-1.5-2.6992-4l-6.3008-9.4004c-0.2-0.2-0.3-0.49922-0.5-0.69922-0.1-0.3-0.7-1.0008-1.5-2.3008-0.9-1.3-1.5988-2.4992-2.2988-3.6992 4.2-1.6 7.4004-3.7004 9.4004-6.4004s3.0996-5.7 3.0996-9c0-2.8-0.80117-5.0996-2.2012-7.0996-1.5-1.9-3.2984-3.2008-5.3984-3.8008s-5.3016-0.90039-9.6016-0.90039h-0.69922zm90.301 0c-2.1 0-4.9008 0.0016-8.3008 0.10156-4.8 0.2-8.1008 0.29883-9.8008 0.29883l-14.799-0.29883v3.2988c2.9 0.4 4.6996 0.60117 5.0996 0.70117 0.5 0.1 0.8 0.3 1 0.5 0.1 0.1 0.20079 0.29961 0.30078 0.59961 0.30001 1.1 0.40001 3.4988 0.5 7.2988 0.10001 6.9 0.19922 12.201 0.19922 15.801v6.6992c0 8.2-0.10039 14.101-0.40039 17.701-0.9 0.6-1.7988 1.1988-2.7988 1.7988-0.5 0.3-0.90156 0.50117-1.1016 0.70117v2l12.301-0.30078 12.1 0.30078c5.5 0 10.2-0.60078 14-1.8008 3.9-1.2 7.5008-3.2004 10.801-5.9004 3.3-2.7 5.8988-6.0992 7.7988-10.199 1.9-4.1 2.8008-8.7004 2.8008-13.9 0-4.1-0.60039-7.7992-1.9004-11.199-0.8-2-1.8988-4.0012-3.2988-5.7012-1.5-1.8-3.3004-3.2996-5.4004-4.5996s-4.6-2.1988-7.5-2.7988-6.7-0.90039-11.5-0.90039l-0.0996-0.20117zm-228.1 0.10156-0.0996 0.19922c0.03 0.002 0.0696 0.0019 0.0996 0.0039v-0.20312zm0 0.20312v3.3965c3.5 0.1 5.6008 0.39883 6.3008 0.79883 0.3 0.2 0.49961 0.40117 0.59961 0.70117 0.2 0.7 0.4 3.6988 0.5 8.7988 0 2 0.0996 7.3004 0.0996 15.9 0 5.8 0.00078 10.8-0.19922 15-0.1 4.2-0.20039 6.6008-0.40039 7.3008 0 0.2-0.0992 0.30039-0.19922 0.40039-0.2 0.2-0.4996 0.49883-1.0996 0.79883-1.3 0.8-2.3 1.2996-3 1.5996v2.1016c5.4-0.2 9.4996-0.40039 12.1-0.40039 1.8 0 4.8988-0.000781 9.2988 0.19922 5.9 0.1 9.1016 0.20117 9.6016 0.20117 3.5 0 6.0992-0.10117 7.6992-0.20117 0.8-0.1 1.6008-0.2 2.3008-0.5 0-0.5 0.19844-2.0996 0.39844-4.5996l1-8.1992c0-0.1 0.002-0.60078 0.10156-1.3008h-3.3008c-0.5 2.7-1.0996 4.9996-1.5996 7.0996-0.2 0.8-0.50117 1.3-0.70117 1.5s-0.9 0.4-2 0.5c-3.1 0.5-6.6988 0.70117-10.799 0.70117-1.4 0-3.9012-0.10078-7.7012-0.30078 0-0.8 0.00039-3.1004-0.0996-6.9004 0-3.8 0.00039-7.7-0.0996-11.5v-11.699c0-4.6 0.0992-8.3008 0.19922-11.301 0.1-3 0.30039-4.7 0.40039-5 0.1-0.4 0.40118-0.59883 0.70117-0.79883 0.7-0.4 2.4996-0.60117 5.5996-0.70117v-3.5996c-4.4 0.2-9.1 0.30078-14 0.30078-4.36 0-8.3212-0.10088-11.701-0.29688zm167-0.20312v3.5996c3 0.1 4.7012 0.19883 5.2012 0.29883s0.8 0.3 1 0.5 0.3004 0.50078 0.40039 0.80078c0.2 0.9 0.3 3 0.5 6.5 0.10001 1.5 0.0996 5.0004 0.0996 10.4v17c0 2.8-0.10078 5.7996-0.30078 9.0996-0.1 2.2-0.19883 3.5008-0.29883 3.8008-0.1 0.2-0.20039 0.49922-0.40039 0.69922s-0.60117 0.30039-1.2012 0.40039c-0.4 0.1-1.9984 0.19883-4.8984 0.29883v3.6016c3.4-0.2 7.2992-0.30078 11.699-0.30078 5 0 9.7992 0.10078 14.199 0.30078v-3.6016c-2.7-0.1-4.2984-0.09922-4.8984-0.19922s-1.0012-0.3-1.2012-0.5c-0.3-0.2-0.49961-0.50039-0.59961-0.90039-0.3-0.8-0.40039-2.6004-0.40039-5.4004l-0.0996-7.5v-16.398c0-0.5-0.00078-4.1008 0.19922-10.801 0-2 0.10157-3.3 0.10156-4 0.10001-1.3 0.19844-2.1996 0.39844-2.5996 0.1-0.3 0.3-0.50117 0.5-0.70117s0.60156-0.29844 1.1016-0.39844c0.5-0.1 2.0984-0.20078 4.8984-0.30078v-3.5996c-4.4 0.2-9.0996 0.29883-14.1 0.29883-4.4 0-8.3988-0.09883-11.799-0.29883l-0.10156-0.09961zm-90.199 3.5996c3.5 0 6.3004 0.59883 8.4004 1.7988s3.9 2.9016 5.5 5.1016c1.5 2.2 2.6996 4.8996 3.5996 8.0996 0.8 3.2 1.3008 6.6004 1.3008 10.4 0 5.5-0.80078 10.299-2.3008 14.199s-3.6008 6.7008-6.3008 8.3008-5.7992 2.3984-9.1992 2.3984c-3.7 0-6.8996-0.89961-9.5996-2.5996s-4.9012-4.6988-6.7012-8.7988c-1.7-4.1-2.5996-9.4012-2.5996-15.701 0-4.4 0.60039-8.3996 1.9004-12.1 1.3-3.6 3.2996-6.3992 6.0996-8.1992 2.8-1.9 6.1996-2.8008 10.1-2.8008l-0.19922-0.09961zm144.4 0.69922c5.6 0 9.7004 0.5 12.4 1.5 2.7 1 4.9988 2.6012 6.7988 4.7012 1.8 2.2 3.1004 4.6996 3.9004 7.5996s1.1992 5.9 1.1992 9c0 3.4-0.39922 6.6-1.1992 9.5-0.8 2.9-1.9008 5.3996-3.3008 7.5996-1.4 2.1-2.9 3.7008-4.5 4.8008s-3.2984 1.9-5.3984 2.5c-2.8 0.8-6.0016 1.1992-9.6016 1.1992-2.3 0-4.6992-0.19922-7.1992-0.69922-0.3-2.6-0.40039-7.9-0.40039-16v-9.3008c0-10.6 0.10039-17.899 0.40039-21.699 2.5-0.4 4.8004-0.60156 6.9004-0.60156v-0.09961zm55.799 9.5996 8.7012 21.102c-2.5 0.1-5.2004 0.09961-8.4004 0.09961s-6.0992 0.000391-8.6992-0.09961l8.3984-21.102z"/>
 </g>
</svg>
